<svg width="30" height="30" xmlns="http://www.w3.org/2000/svg">
  <path d="M24 12c0 6.627-5.373 12-12 12S0 18.627 0 12 5.373 0 12 0s12 5.373 12 12zm-1 0c0-6.075-4.925-11-11-11S1 5.925 1 12s4.925 11 11 11 11-4.925 11-11zM12 6c1.63 0 1.834.007 2.474.036.638.03 1.075.13 1.456.279.395.153.73.358 1.063.692.334.334.539.668.692 1.063.148.381.25.818.279 1.456.03.64.036.844.036 2.474 0 1.63-.007 1.834-.036 2.474-.03.638-.13 1.075-.279 1.456-.153.395-.358.73-.692 1.063a2.941 2.941 0 0 1-1.063.692c-.381.148-.818.25-1.456.279-.64.03-.844.036-2.474.036-1.63 0-1.834-.007-2.474-.036-.638-.03-1.075-.13-1.456-.279a2.941 2.941 0 0 1-1.063-.692 2.94 2.94 0 0 1-.692-1.063c-.148-.381-.25-.818-.279-1.456C6.006 13.834 6 13.63 6 12c0-1.63.007-1.834.036-2.474.03-.638.13-1.075.279-1.456a2.94 2.94 0 0 1 .692-1.063 2.94 2.94 0 0 1 1.063-.692c.381-.148.818-.25 1.456-.279C10.166 6.006 10.37 6 12 6zm0 1.081c-1.602 0-1.792.006-2.425.035-.585.027-.902.124-1.114.207-.28.108-.48.239-.69.448-.21.21-.34.41-.448.69-.083.212-.18.53-.207 1.114-.029.633-.035.823-.035 2.425 0 1.602.006 1.792.035 2.425.027.585.124.902.207 1.114.108.28.239.48.448.69.21.21.41.34.69.448.212.083.53.18 1.114.207.633.029.823.035 2.425.035 1.602 0 1.792-.006 2.425-.035.585-.027.902-.124 1.114-.207.28-.108.48-.239.69-.448.21-.21.34-.41.448-.69.083-.212.18-.53.207-1.114.029-.633.035-.823.035-2.425 0-1.602-.006-1.792-.035-2.425-.027-.585-.124-.902-.207-1.114a1.859 1.859 0 0 0-.448-.69c-.21-.21-.41-.34-.69-.448-.212-.083-.53-.18-1.114-.207-.633-.029-.823-.035-2.425-.035zm0 6.866a1.947 1.947 0 1 0 0-3.894 1.947 1.947 0 0 0 0 3.894zM12 9a3 3 0 1 1 0 6 3 3 0 0 1 0-6zm4-.25a.75.75 0 1 1-1.5 0 .75.75 0 0 1 1.5 0z" fill="#FFF" fill-rule="evenodd"/>
</svg>