<svg width="30" height="30" xmlns="http://www.w3.org/2000/svg">
  <path d="M24 12c0 6.627-5.373 12-12 12S0 18.627 0 12 5.373 0 12 0s12 5.373 12 12zm-1 0c0-6.075-4.925-11-11-11S1 5.925 1 12s4.925 11 11 11 11-4.925 11-11zM9.883 17.5c4.664 0 7.216-4.233 7.216-7.898 0-.12 0-.238-.005-.357.494-.39.925-.883 1.266-1.44a4.8 4.8 0 0 1-1.46.438 2.763 2.763 0 0 0 1.119-1.537c-.49.32-1.034.546-1.613.671-.465-.541-1.122-.877-1.85-.877-1.4 0-2.537 1.245-2.537 2.777 0 .217.025.428.065.633-2.107-.113-3.977-1.223-5.228-2.901a2.98 2.98 0 0 0-.342 1.397c0 .963.45 1.813 1.128 2.311a2.399 2.399 0 0 1-1.147-.346v.037c0 1.343.875 2.469 2.032 2.723a2.273 2.273 0 0 1-.667.098c-.164 0-.322-.016-.475-.049.321 1.104 1.261 1.906 2.369 1.927-.87.747-1.964 1.191-3.15 1.191-.203 0-.406-.01-.604-.038a6.769 6.769 0 0 0 3.883 1.24z" fill="#FFF" fill-rule="evenodd"/>
</svg>