<svg width="30" height="30" xmlns="http://www.w3.org/2000/svg">
  <path d="M24 12c0 6.627-5.373 12-12 12S0 18.627 0 12 5.373 0 12 0s12 5.373 12 12zm-1 0c0-6.075-4.925-11-11-11S1 5.925 1 12s4.925 11 11 11 11-4.925 11-11zm-4.293-3.438C19 9.676 19 12 19 12s0 2.324-.293 3.439a1.772 1.772 0 0 1-1.237 1.263C16.378 17 12 17 12 17s-4.378 0-5.47-.298a1.772 1.772 0 0 1-1.237-1.263C5 14.324 5 12 5 12s0-2.324.293-3.438A1.772 1.772 0 0 1 6.53 7.299C7.622 7 12 7 12 7s4.378 0 5.47.299a1.771 1.771 0 0 1 1.237 1.263zM10.5 14l3.5-2-3.5-2v4z" fill="#FFF" fill-rule="evenodd"/>
</svg>